<svg xmlns="http://www.w3.org/2000/svg" version="1.1" xmlns:xlink="http://www.w3.org/1999/xlink" xmlns:svgjs="http://svgjs.dev/svgjs" width="1440" height="560" preserveAspectRatio="none" viewBox="0 0 1440 560"><g mask="url(&quot;#SvgjsMask1014&quot;)" fill="none"><path d="M935.92 620.32C1077.84 574.09 1109.64 169.04 1318.26 161.78 1526.88 154.52 1600.19 283.47 1700.6 284.98" stroke="rgba(47, 1, 1, 1)" stroke-width="2"></path><path d="M374.28 618.53C554.6 600.9 674.35 218.31 978.31 218.09 1282.27 217.87 1417.72 475.66 1582.34 481.29" stroke="rgba(47, 1, 1, 1)" stroke-width="2"></path><path d="M740.22 608.63C843.89 607.08 918.59 489.76 1135.04 481.62 1351.49 473.48 1415.97 260.17 1529.86 252.02" stroke="rgba(47, 1, 1, 1)" stroke-width="2"></path><path d="M519.07 563.05C641.44 544.83 703.28 256.66 905.52 253.95 1107.76 251.24 1098.74 323.95 1291.96 323.95 1485.19 323.95 1580.23 254.23 1678.41 253.95" stroke="rgba(47, 1, 1, 1)" stroke-width="2"></path><path d="M385.83 646.32C502.72 632.19 457.67 378.51 766.69 369.28 1075.71 360.05 1331.78 174.84 1528.41 173.28" stroke="rgba(47, 1, 1, 1)" stroke-width="2"></path></g><defs><mask id="SvgjsMask1014"><rect width="1440" height="560" fill="#ffffff"></rect></mask></defs></svg>